<svg id="Capa_1" enable-background="new 0 0 512.002 512.002" height="512" viewBox="0 0 512.002 512.002" width="512" xmlns="http://www.w3.org/2000/svg"><g><g><path d="m260.696 114.541 29.932 106.834 106.834 29.932c4.746 1.33 4.746 8.058 0 9.388l-106.834 29.932-29.932 106.834c-1.33 4.746-8.058 4.746-9.388 0l-29.932-106.834-106.834-29.932c-4.746-1.33-4.746-8.058 0-9.388l106.834-29.932 29.932-106.834c1.33-4.746 8.058-4.746 9.388 0z" fill="#99ebfa"/><g><path d="m290.628 221.375 28.333 7.938 39.361-70.001c2.049-3.644-1.987-7.68-5.631-5.631l-70.001 39.361z" fill="#fff7bf"/><path d="m193.043 229.313 28.333-7.938 7.938-28.333-70.001-39.361c-3.644-2.049-7.68 1.987-5.631 5.631z" fill="#fff2a0"/><path d="m318.961 282.689-28.333 7.938-7.938 28.333 70.001 39.361c3.644 2.049 7.68-1.987 5.631-5.631z" fill="#fff2a0"/><path d="m221.376 290.627-28.333-7.938-39.361 70.001c-2.049 3.644 1.986 7.68 5.631 5.631l70.001-39.361z" fill="#fff7bf"/></g></g><g><path d="m256.002 100.074c-85.979 0-155.927 69.948-155.927 155.927s69.948 155.927 155.927 155.927 155.927-69.948 155.927-155.927-69.948-155.927-155.927-155.927zm106.714 240.029-28.8-51.219 56.963-15.96c-3.137 25.16-13.179 48.207-28.163 67.179zm-241.592-67.179 56.963 15.96-28.8 51.219c-14.983-18.972-25.025-42.019-28.163-67.179zm28.164-101.024 28.8 51.219-56.963 15.96c3.137-25.161 13.179-48.207 28.163-67.179zm164.807 122.538 25.25 44.907-44.907-25.251 4.302-15.354zm-26.165-13.44c-.052.015-.105.03-.157.045-3.235.963-5.766 3.494-6.729 6.729-.016.052-.031.104-.045.157l-24.997 89.219-24.997-89.219c-.015-.053-.03-.105-.045-.157-.963-3.235-3.494-5.766-6.729-6.729-.052-.016-.105-.031-.157-.045l-89.219-24.997 89.219-24.997c.053-.015.105-.03.157-.045 3.235-.963 5.766-3.494 6.729-6.729.016-.052.031-.104.045-.157l24.997-89.219 24.997 89.219c.015.053.03.105.045.157.963 3.235 3.494 5.766 6.729 6.729.052.016.104.031.157.045l89.219 24.997zm-70.364 33.096-44.907 25.251 25.25-44.907 15.355 4.302zm-19.657-96.529-25.25-44.907 44.907 25.251-4.302 15.355zm100.831-4.302-4.302-15.355 44.907-25.251-25.25 44.907zm-9.855-35.176-15.96-56.963c25.16 3.138 48.206 13.18 67.178 28.164zm-65.766 0-51.219-28.8c18.972-14.984 42.018-25.025 67.178-28.164zm0 155.829 15.96 56.963c-25.16-3.138-48.206-13.18-67.178-28.164zm65.766 0 51.218 28.8c-18.972 14.984-42.018 25.025-67.178 28.163zm45.032-110.798 28.8-51.219c14.984 18.972 25.025 42.018 28.164 67.178z"/><path d="m233.743 83.53c5.523 0 10-4.477 10-10v-31.331l24.65 35.695c2.858 4.126 7.654 5.871 12.223 4.444 4.644-1.451 7.644-5.748 7.644-11.045l-.594-61.388c-.054-5.522-4.578-9.976-10.096-9.903-5.522.053-9.956 4.574-9.903 10.096l.31 31.997-26.005-37.658c-2.487-3.601-7.027-5.167-11.205-3.864-4.178 1.302-7.024 5.17-7.024 9.547v63.41c0 5.523 4.477 10 10 10z"/><path d="m502.002 277.476h-16.524v-11.475h14.569c5.523 0 10-4.477 10-10s-4.477-10-10-10h-14.569v-11.475h16.524c5.523 0 10-4.477 10-10s-4.477-10-10-10h-26.524c-5.523 0-10 4.477-10 10v62.949c0 5.523 4.477 10 10 10h26.524c5.523 0 10-4.477 10-10 0-5.522-4.477-9.999-10-9.999z"/><path d="m266.49 461.356c-7.439-2.744-14.389-5.724-16.89-6.815-.668-.653-.725-1.471-.637-2.085.222-1.544 1.537-2.787 3.609-3.411 7.948-2.396 15.521 3.613 15.597 3.674 3.917 2.249 8.886 1.332 11.741-2.168l.316-.388c3.609-4.422 2.399-11.063-2.582-13.85-8.572-4.796-20.793-9.445-30.841-6.418-9.546 2.876-16.304 10.432-17.637 19.719-1.258 8.764 2.543 17.196 9.92 22.006.442.288.906.541 1.387.755.37.165 9.179 4.086 19.095 7.744 3.696 1.363 7.48 3.749 7.015 6.355-.398 2.229-3.556 5.526-9.071 5.526-5.679 0-11.126-2.242-14.612-6.005-3.605-3.892-9.69-4.532-13.812-1.191-4.497 3.645-4.96 10.263-1.125 14.494 7.315 8.072 18.085 12.702 29.548 12.702 14.387 0 26.483-9.257 28.759-22.011 1.731-9.677-2.559-22.282-19.78-28.633z"/><path d="m54.136 289.756c.042.135.086.27.133.403 1.619 4.558 5.942 7.607 10.774 7.607h.076c4.863-.032 9.183-3.147 10.749-7.751.142-.416.255-.839.341-1.27l12.427-62.44c1.078-5.417-2.439-10.682-7.855-11.76-5.42-1.078-10.682 2.439-11.76 7.855l-5.772 29.003-9.277-30.112c-1.625-5.277-7.22-8.238-12.501-6.612-3.568 1.099-6.076 4.013-6.825 7.416l-9.075 29.317-5.759-29.117c-1.072-5.418-6.338-8.939-11.75-7.87-5.418 1.072-8.941 6.333-7.87 11.751l12.378 62.575c.095.478.224.948.387 1.407 1.619 4.559 5.942 7.607 10.774 7.607h.078c4.863-.033 9.183-3.15 10.748-7.754.03-.087.058-.174.085-.261l9.769-31.563z"/><path d="m464.192 307.733c-5.292-1.58-10.862 1.433-12.44 6.726-5.509 18.476-13.63 36.079-24.137 52.32-3 4.637-1.673 10.828 2.964 13.828 1.679 1.086 3.561 1.605 5.422 1.605 3.279 0 6.492-1.611 8.405-4.569 11.539-17.836 20.459-37.172 26.511-57.469 1.579-5.293-1.433-10.863-6.725-12.441z"/><path d="m416.722 403.661c-1.662-3.987-5.814-6.525-10.127-6.135-4.137.374-7.678 3.374-8.763 7.375-1.072 3.954.494 8.343 3.838 10.714 3.421 2.426 8.049 2.463 11.508.092 3.852-2.638 5.304-7.748 3.544-12.046z"/><path d="m366.78 427.614c-16.242 10.507-33.845 18.628-52.32 24.137-5.292 1.578-8.304 7.148-6.726 12.44 1.294 4.34 5.271 7.145 9.579 7.145.946 0 1.909-.135 2.861-.42 20.296-6.052 39.631-14.972 57.469-26.511 4.637-2.999 5.964-9.19 2.964-13.828-2.999-4.637-9.191-5.963-13.827-2.963z"/><path d="m197.545 451.751c-66.222-19.746-117.546-71.07-137.292-137.292-1.578-5.293-7.144-8.305-12.44-6.726-5.292 1.578-8.304 7.148-6.726 12.441 10.57 35.449 30.058 68.086 56.357 94.386 26.299 26.299 58.937 45.788 94.386 56.357.953.284 1.915.42 2.861.42 4.308 0 8.285-2.806 9.579-7.145 1.578-5.293-1.433-10.863-6.725-12.441z"/><path d="m47.812 204.269c.953.284 1.915.419 2.861.419 4.308 0 8.285-2.806 9.579-7.145 19.746-66.222 71.07-117.546 137.292-137.292 5.293-1.578 8.304-7.148 6.726-12.44s-7.144-8.305-12.44-6.726c-35.449 10.57-68.086 30.058-94.386 56.357s-45.788 58.937-56.357 94.386c-1.579 5.293 1.433 10.863 6.725 12.441z"/><path d="m314.46 60.252c66.222 19.746 117.546 71.07 137.292 137.292 1.294 4.34 5.271 7.145 9.579 7.145.946 0 1.908-.135 2.861-.419 5.293-1.578 8.304-7.148 6.726-12.441-10.57-35.449-30.058-68.086-56.357-94.386-26.299-26.299-58.937-45.788-94.386-56.357-5.293-1.577-10.863 1.433-12.44 6.726-1.579 5.292 1.432 10.862 6.725 12.44z"/><path d="m256.002 237.576c-5.523 0-10 4.477-10 10v16.851c0 5.523 4.477 10 10 10s10-4.477 10-10v-16.851c0-5.523-4.477-10-10-10z"/></g></g></svg>