<?xml version="1.0" encoding="UTF-8"?>
<svg xmlns="http://www.w3.org/2000/svg" id="icons" viewBox="0 0 60 60" width="512" height="512"><path d="M20,13H52a3,3,0,0,1,3,3v9a3,3,0,0,1-3,3H49v-.65a1.339,1.339,0,0,0-2.18-1.05l-3.31,2.64a1.357,1.357,0,0,0,0,2.12l3.31,2.64A1.339,1.339,0,0,0,49,32.65V32h4a6.018,6.018,0,0,0,6-6V15a6.018,6.018,0,0,0-6-6H20Z" fill="#4184a9"/><path d="M8,32a3,3,0,0,0-3,3v9a3,3,0,0,0,3,3h3v-.65a1.339,1.339,0,0,1,2.18-1.05l3.31,2.64a1.355,1.355,0,0,1,0,2.12L13.18,52.7A1.339,1.339,0,0,1,11,51.65V51H7a6.018,6.018,0,0,1-6-6V34a6.018,6.018,0,0,1,6-6h8a2,2,0,0,1,2,2h0a2,2,0,0,1-2,2Z" fill="#4184a9"/><path d="M21,49a2,2,0,0,1,2-2H33v-.65a1.339,1.339,0,0,1,2.18-1.05l3.31,2.64a1.355,1.355,0,0,1,0,2.12L35.18,52.7A1.339,1.339,0,0,1,33,51.65V51H23a2,2,0,0,1-2-2Z" fill="#4184a9"/><path d="M39,30a2,2,0,0,0-2-2H27v-.65a1.339,1.339,0,0,0-2.18-1.05l-3.31,2.64a1.357,1.357,0,0,0,0,2.12l3.31,2.64A1.339,1.339,0,0,0,27,32.65V32H37a2,2,0,0,0,2-2Z" fill="#4184a9"/><circle cx="11" cy="11" r="10" fill="#bfdbf0"/><circle cx="11" cy="10" r="5" fill="#4184a9"/><circle cx="49" cy="49" r="10" fill="#4ab591"/><path d="M17,18.99V19A10,10,0,0,1,5,19v-.01A4,4,0,0,1,9,15h4A4,4,0,0,1,17,18.99Z" fill="#4184a9"/><path d="M53,8H24a1,1,0,0,0,0,2H53a5.006,5.006,0,0,1,5,5V26a5.006,5.006,0,0,1-5,5H49a1,1,0,0,0-1,1v.65a.332.332,0,0,1-.2.315.314.314,0,0,1-.36-.047l-3.312-2.642a.354.354,0,0,1,0-.553l3.314-2.645a.316.316,0,0,1,.356-.043.332.332,0,0,1,.2.315V28a1,1,0,0,0,1,1h3a4,4,0,0,0,4-4V16a4,4,0,0,0-4-4H21.949c.03-.33.051-.662.051-1a11.037,11.037,0,1,0-.426,3H52a2,2,0,0,1,2,2v9a2,2,0,0,1-2,2H49.975A2.339,2.339,0,0,0,46.2,25.518l-3.308,2.639a2.357,2.357,0,0,0,0,3.685l3.306,2.637A2.339,2.339,0,0,0,49.975,33H53a7.009,7.009,0,0,0,7-7V15A7.009,7.009,0,0,0,53,8ZM6.051,18.509A3,3,0,0,1,9,16h4a3,3,0,0,1,2.949,2.509,8.959,8.959,0,0,1-9.9,0ZM11,14a4,4,0,1,1,4-4A4,4,0,0,1,11,14Zm6.612,3.085a5.033,5.033,0,0,0-2.589-2.646,6,6,0,1,0-8.046,0A5.03,5.03,0,0,0,4.39,17.087a9,9,0,1,1,13.222,0Z" fill="#373737"/><path d="M7,52h3.025A2.335,2.335,0,0,0,13.8,53.482l3.309-2.64a2.355,2.355,0,0,0,0-3.684l-3.306-2.637A2.339,2.339,0,0,0,10.025,46H8a2,2,0,0,1-2-2V35a2,2,0,0,1,2-2h7a3,3,0,0,0,0-6H7a7.009,7.009,0,0,0-7,7V45A7.009,7.009,0,0,0,7,52ZM2,34a5.006,5.006,0,0,1,5-5h8a1,1,0,0,1,0,2H8a4,4,0,0,0-4,4v9a4,4,0,0,0,4,4h3a1,1,0,0,0,1-1v-.65a.332.332,0,0,1,.2-.315.321.321,0,0,1,.36.047l3.311,2.641a.352.352,0,0,1,0,.554l-3.314,2.645a.322.322,0,0,1-.356.043.332.332,0,0,1-.2-.315V51a1,1,0,0,0-1-1H7a5.006,5.006,0,0,1-5-5Z" fill="#373737"/><path d="M24.192,34.479A2.339,2.339,0,0,0,27.975,33H37a3,3,0,0,0,0-6H27.975A2.339,2.339,0,0,0,24.2,25.519l-3.309,2.639a2.357,2.357,0,0,0,0,3.685Zm-2.057-4.757,3.313-2.644A.33.33,0,0,1,25.655,27a.356.356,0,0,1,.149.036.332.332,0,0,1,.2.316V28a1,1,0,0,0,1,1H37a1,1,0,0,1,0,2H27a1,1,0,0,0-1,1v.65a.332.332,0,0,1-.2.315.314.314,0,0,1-.36-.047l-3.309-2.64a.354.354,0,0,1,0-.556Z" fill="#373737"/><path d="M49,38a11.012,11.012,0,0,0-10.7,8.506l-2.488-1.985A2.339,2.339,0,0,0,32.025,46H23a3,3,0,0,0,0,6h9.025A2.335,2.335,0,0,0,35.8,53.482L38.3,51.494A11,11,0,1,0,49,38ZM37.866,49.277l-3.314,2.645a.322.322,0,0,1-.356.043.332.332,0,0,1-.2-.315V51a1,1,0,0,0-1-1H23a1,1,0,0,1,0-2H33a1,1,0,0,0,1-1v-.65a.332.332,0,0,1,.2-.315.321.321,0,0,1,.36.047l3.311,2.641A.343.343,0,0,1,38,49V49A.341.341,0,0,1,37.866,49.277ZM49,58a9.01,9.01,0,0,1-9-8.994v-.012A9,9,0,1,1,49,58Z" fill="#373737"/><path d="M52.293,45.293,47,50.586l-1.293-1.293a1,1,0,0,0-1.414,1.414l2,2a1,1,0,0,0,1.414,0l6-6a1,1,0,0,0-1.414-1.414Z" fill="#373737"/></svg>
