<svg id="Capa_1" enable-background="new 0 0 512 512" height="512" viewBox="0 0 512 512" width="512" xmlns="http://www.w3.org/2000/svg"><g><g><g><ellipse cx="231.779" cy="275.004" fill="#faf7f5" rx="221.779" ry="222.34"/></g><ellipse cx="231.779" cy="275.004" fill="#ff9c9b" rx="162.927" ry="163.339"/><ellipse cx="231.779" cy="275.004" fill="#faf7f5" rx="99.414" ry="99.666"/><ellipse cx="231.778" cy="275.004" fill="#ff9c9b" rx="38.68" ry="38.778"/><g><g><path d="m456.711 121.767-58.856 56.733-46.572-16.167-14.286-47.288 58.856-56.734" fill="#b5b3ee"/><path d="m443.144 134.845-46.572-16.167-14.286-47.289 58.856-56.733 14.286 47.289 46.572 16.167z" fill="#9d9ae8"/></g></g></g><g><path d="m453.56 285c-4.119 0-7.906-2.618-9.36-6.472-1.494-3.96-.26-8.578 3.017-11.255 3.236-2.644 7.894-2.986 11.48-.842 3.578 2.139 5.49 6.437 4.663 10.529-.935 4.62-5.08 8.04-9.8 8.04z"/><path d="m511.767 75.964c-.746-3.396-3.203-6.16-6.487-7.299l-41.755-14.495-12.811-42.405c-1.007-3.335-3.677-5.905-7.048-6.785-3.37-.88-6.955.059-9.465 2.477l-75.771 73.038c-37.715-24.774-81.344-37.831-126.652-37.831-127.802 0-231.778 104.228-231.778 232.34s103.976 232.34 231.778 232.34c53.588 0 105.887-18.838 147.263-53.045 40.807-33.737 69.127-80.708 79.743-132.262 1.113-5.409-2.369-10.697-7.778-11.811-5.411-1.113-10.697 2.368-11.812 7.778-20.204 98.122-107.436 169.34-207.416 169.34-116.775.001-211.778-95.255-211.778-212.34s95.003-212.34 211.778-212.34c39.86 0 78.296 11.063 111.854 32.096l-13.575 13.085c-2.701 2.604-3.717 6.5-2.632 10.092l4.86 16.087c-28.344-20.361-63.053-32.359-100.506-32.359-95.352 0-172.926 77.76-172.926 173.339s77.574 173.339 172.926 173.339c95.353 0 172.927-77.76 172.927-173.339 0-34.159-9.909-66.042-26.996-92.913l16.866 5.855c1.072.373 2.179.554 3.278.554 2.547 0 5.047-.975 6.941-2.801l12.855-12.392c10.017 18.315 17.228 37.9 21.477 58.365.98 4.722 5.141 7.969 9.781 7.969.673 0 1.357-.068 2.042-.21 5.408-1.123 8.882-6.417 7.759-11.824-5.021-24.185-13.819-47.245-26.179-68.642l76.41-73.654c2.503-2.413 3.574-5.952 2.827-9.347zm-155.643 67.813-7.787-25.774 29.109-28.059 7.787 25.774zm-124.346 284.567c-84.323 0-152.926-68.788-152.926-153.339s68.603-153.339 152.926-153.339c40.309 0 77.025 15.719 104.373 41.364l-31.433 30.299c-19.371-17.397-44.944-27.99-72.94-27.99-60.331 0-109.414 49.196-109.414 109.666s49.083 109.665 109.414 109.665c60.332 0 109.415-49.196 109.415-109.666 0-25.217-8.536-48.472-22.863-67.018l31.496-30.359c21.782 26.501 34.879 60.434 34.879 97.377 0 84.552-68.602 153.34-152.927 153.34zm28.68-153.34c0 15.868-12.865 28.778-28.68 28.778s-28.68-12.91-28.68-28.778 12.865-28.778 28.68-28.778c5.147 0 9.981 1.368 14.162 3.76l-14.31 13.794c-3.976 3.833-4.092 10.164-.26 14.14 1.963 2.036 4.58 3.06 7.201 3.06 2.498 0 4.999-.93 6.939-2.8l13.293-12.813c1.071 3.014 1.655 6.258 1.655 9.637zm.222-39.226c-8.089-5.999-18.089-9.551-28.902-9.551-26.842 0-48.68 21.882-48.68 48.778s21.838 48.778 48.68 48.778 48.68-21.882 48.68-48.778c0-8.832-2.355-17.123-6.468-24.276l29.841-28.765c10.91 14.864 17.363 33.211 17.363 53.041 0 49.442-40.111 89.666-89.415 89.666-49.303 0-89.414-40.224-89.414-89.666s40.111-89.666 89.414-89.666c22.349 0 42.81 8.265 58.501 21.908zm134.654-68.738-25.383-8.812 29.141-28.09 25.383 8.812zm45.289-43.656-25.383-8.812 17.439-16.811c3.976-3.833 4.092-10.164.26-14.14-3.834-3.977-10.164-4.092-14.141-.26l-17.386 16.759-7.786-25.774 42.676-41.136 9.554 31.624c.926 3.067 3.266 5.505 6.293 6.555l31.184 10.825z"/></g></g></svg>