<svg id="Outer_Lines" height="512" viewBox="0 0 60 60" width="512" xmlns="http://www.w3.org/2000/svg" data-name="Outer Lines"><circle cx="30" cy="30" fill="#3e748a" r="18"/><g fill="#a3bdce"><circle cx="30" cy="4" r="3"/><circle cx="17" cy="7.483" r="3"/><circle cx="7.483" cy="17" r="3"/><circle cx="4" cy="30" r="3"/><circle cx="7.483" cy="43" r="3"/><circle cx="17" cy="52.517" r="3"/><circle cx="30" cy="56" r="3"/><circle cx="43" cy="52.517" r="3"/><circle cx="52.517" cy="43" r="3"/><circle cx="56" cy="30" r="3"/><circle cx="52.517" cy="17" r="3"/><circle cx="43" cy="7.483" r="3"/></g><path d="m56 26c-.01 0-.02 0-.03 0l-1.482-5.526.029-.013a4 4 0 0 0 -4-6.928c-.009.005-.016.012-.025.017l-4.046-4.042c.005-.009.013-.016.018-.025a4 4 0 0 0 -6.928-4c-.005.009-.008.019-.013.028l-5.523-1.48c0-.011 0-.02 0-.031a4 4 0 0 0 -8 0v.03l-5.523 1.482c0-.01-.008-.02-.013-.029a4 4 0 0 0 -6.928 4c.005.009.012.016.017.025l-4.044 4.046c-.01-.005-.017-.013-.026-.018a4 4 0 0 0 -4 6.928l.028.013-1.48 5.523c-.011 0-.02 0-.031 0a4 4 0 0 0 0 8h.03l1.482 5.526-.029.013a4 4 0 1 0 4 6.928c.009 0 .016-.012.025-.017l4.046 4.044c-.005.01-.013.017-.018.026a4 4 0 1 0 6.928 4c.005-.009.008-.019.013-.028l5.523 1.477v.031a4 4 0 0 0 8 0c0-.01 0-.02 0-.03l5.526-1.482c0 .009.008.02.013.029a4 4 0 0 0 6.928-4c0-.009-.012-.016-.017-.025l4.044-4.046c.01.005.017.013.026.018a4 4 0 0 0 4-6.928l-.028-.013 1.477-5.523h.031a4 4 0 0 0 0-8zm-4.483-10.732a2 2 0 1 1 -.732 2.732 2 2 0 0 1 .732-2.732zm1.036 5.713 1.486 5.542a4.024 4.024 0 0 0 -1.897 2.477h-3.193a18.846 18.846 0 0 0 -2.034-7.611l2.76-1.594a3.992 3.992 0 0 0 2.878 1.186zm-15.947-.428a49.162 49.162 0 0 1 -5.606.429v-7.827c2.3.645 4.333 3.445 5.606 7.398zm-1.267-6.682a17.067 17.067 0 0 1 7.773 5.32 44.836 44.836 0 0 1 -4.5 1.048 18.242 18.242 0 0 0 -3.273-6.368zm1.8 8.629a32.129 32.129 0 0 1 .836 6.5h-6.975v-6.019a50.97 50.97 0 0 0 6.139-.481zm.836 8.5a32.129 32.129 0 0 1 -.836 6.5 50.97 50.97 0 0 0 -6.139-.481v-6.019zm-1.369 8.447c-1.273 3.953-3.306 6.753-5.606 7.398v-7.827a49.162 49.162 0 0 1 5.606.429zm2 .314a44.836 44.836 0 0 1 4.5 1.048 17.067 17.067 0 0 1 -7.773 5.32 18.242 18.242 0 0 0 3.277-6.368zm.526-1.938a34.237 34.237 0 0 0 .842-6.823h6.975a16.865 16.865 0 0 1 -2.609 8.092 46.362 46.362 0 0 0 -5.204-1.269zm.842-8.823a34.237 34.237 0 0 0 -.838-6.823 46.362 46.362 0 0 0 5.2-1.269 16.865 16.865 0 0 1 2.613 8.092zm1.294-22.517a2 2 0 1 1 .732 2.732 2 2 0 0 1 -.732-2.732zm.669 4.841a3.987 3.987 0 0 0 3.085-.411l4.058 4.056a4.029 4.029 0 0 0 -.405 3.094l-2.759 1.593a19.139 19.139 0 0 0 -5.572-5.572zm-8.471-5.365 5.542 1.484a4.028 4.028 0 0 0 1.2 2.881l-1.594 2.761a18.846 18.846 0 0 0 -7.614-2.034v-3.193a3.991 3.991 0 0 0 2.466-1.899zm-3.466-3.959a2 2 0 1 1 -2 2 2 2 0 0 1 2-2zm-9.019 5.447 5.542-1.486a4.024 4.024 0 0 0 2.477 1.897v3.179a18.893 18.893 0 0 0 -7.617 2.038l-1.583-2.751a3.988 3.988 0 0 0 1.181-2.877zm-.955 23.553a34.237 34.237 0 0 0 .838 6.823 46.362 46.362 0 0 0 -5.2 1.269 16.865 16.865 0 0 1 -2.613-8.092zm-6.978-2a16.869 16.869 0 0 1 2.593-8.1 46.483 46.483 0 0 0 5.223 1.274 34.237 34.237 0 0 0 -.838 6.826zm8.342 10.761a18.242 18.242 0 0 0 3.271 6.368 17.067 17.067 0 0 1 -7.773-5.32 44.836 44.836 0 0 1 4.502-1.048zm2-.314a49.162 49.162 0 0 1 5.61-.429v7.827c-2.3-.645-4.333-3.445-5.606-7.398zm-.529-1.947a32.129 32.129 0 0 1 -.836-6.5h6.975v6.019a50.97 50.97 0 0 0 -6.139.481zm-.836-8.5a32.129 32.129 0 0 1 .836-6.5 50.97 50.97 0 0 0 6.139.481v6.019zm1.369-8.447c1.273-3.953 3.306-6.753 5.606-7.398v7.827a49.162 49.162 0 0 1 -5.606-.429zm-7.394-14.802a2 2 0 1 1 -.732 2.732 2 2 0 0 1 .732-2.732zm-1.031 5.169a4.024 4.024 0 0 0 3.094.4l1.587 2.749c-.068.044-.139.082-.207.127a1 1 0 0 0 1.114 1.662 16.858 16.858 0 0 1 4.112-2 18.2 18.2 0 0 0 -3.279 6.376 44.779 44.779 0 0 1 -4.5-1.046c.268-.324.536-.646.829-.952a1 1 0 0 0 -1.446-1.383 19.193 19.193 0 0 0 -2.209 2.789l-2.743-1.584a3.992 3.992 0 0 0 -.412-3.085zm-4.644 8.88 2.742 1.583a18.887 18.887 0 0 0 -2.019 7.617h-3.19a3.991 3.991 0 0 0 -1.9-2.466l1.484-5.542a4.032 4.032 0 0 0 2.883-1.192zm-4.574-3.8a2 2 0 1 1 .732 2.732 2 2 0 0 1 -.732-2.732zm-1.751 16a2 2 0 1 1 2-2 2 2 0 0 1 -2 2zm4.483 12.732a2 2 0 1 1 .732-2.732 2 2 0 0 1 -.732 2.732zm-1.036-5.713-1.486-5.542a4.024 4.024 0 0 0 1.897-2.477h3.193a18.846 18.846 0 0 0 2.034 7.611l-2.76 1.594a3.992 3.992 0 0 0 -2.878-1.186zm11.285 14.5a2 2 0 1 1 -.732-2.734 2 2 0 0 1 .732 2.732zm-.669-4.842a3.992 3.992 0 0 0 -3.085.412l-4.058-4.058a4.029 4.029 0 0 0 .4-3.094l2.759-1.593a19.139 19.139 0 0 0 5.572 5.572zm8.471 5.366-5.542-1.484a4.032 4.032 0 0 0 -1.2-2.882l1.594-2.76a18.846 18.846 0 0 0 7.614 2.032v3.193a3.991 3.991 0 0 0 -2.466 1.899zm3.466 3.957a2 2 0 1 1 2-2 2 2 0 0 1 -2 2zm9.019-5.447-5.542 1.486a4.024 4.024 0 0 0 -2.477-1.897v-3.193a18.846 18.846 0 0 0 7.611-2.034l1.594 2.76a3.992 3.992 0 0 0 -1.186 2.878zm4.981 1.696a2 2 0 1 1 .732-2.732 2 2 0 0 1 -.732 2.732zm1.031-5.169a4.029 4.029 0 0 0 -3.094-.405l-1.593-2.759a19.139 19.139 0 0 0 5.572-5.572l2.759 1.593a3.992 3.992 0 0 0 .412 3.085zm4.644-8.875-2.76-1.594a18.846 18.846 0 0 0 2.034-7.611h3.193a3.991 3.991 0 0 0 1.9 2.466l-1.484 5.542a4.032 4.032 0 0 0 -2.883 1.197zm4.574 3.795a2 2 0 1 1 -.732-2.732 2 2 0 0 1 .732 2.732zm1.751-12a2 2 0 1 1 2-2 2 2 0 0 1 -2 2z" fill="#373737"/></svg>