<svg height="512" viewBox="0 0 24 24" width="512" xmlns="http://www.w3.org/2000/svg"><g id="Statistic_Grow" data-name="Statistic Grow"><g fill="#4294ff"><path d="m3 16h4v7h-4z"/><path d="m10 13h4v10h-4z"/><path d="m17 9h4v14h-4z"/></g><path d="m23 22h-1v-13a1 1 0 0 0 -1-1h-4a1 1 0 0 0 -1 1v13h-1v-9a1 1 0 0 0 -1-1h-4a1 1 0 0 0 -1 1v9h-1v-6a1 1 0 0 0 -1-1h-4a1 1 0 0 0 -1 1v6h-1a1 1 0 0 0 0 2h22a1 1 0 0 0 0-2zm-19 0v-5h2v5zm7 0v-8h2v8zm7 0v-12h2v12z" fill="#232328"/><path d="m4 11c6.0086 0 11.3387-4.6041 14-7.3664v1.3664a1 1 0 0 0 2 0v-4a1.0229 1.0229 0 0 0 -1-1h-4a1 1 0 0 0 0 2h1.7845c-2.3636 2.4921-7.3803 7-12.7845 7a1 1 0 0 0 0 2z" fill="#232328"/></g></svg>