<svg id="Outer_Lines" height="512" viewBox="0 0 60 60" width="512" xmlns="http://www.w3.org/2000/svg" data-name="Outer Lines"><path d="m38 31v-16a3 3 0 0 0 -3-3h-20a3 3 0 0 0 -3 3v14a3 3 0 0 0 3 3h20a2.92 2.92 0 0 0 .73-.09z" fill="#bdc2cc"/><path d="m47.438 59h-.876a2 2 0 0 1 -1.941-1.515l-.621-2.485v-1h6v1l-.621 2.485a2 2 0 0 1 -1.941 1.515z" fill="#bdc2cc"/><g fill="#51c0e8"><circle cx="25" cy="3" r="2"/><circle cx="15" cy="3" r="2"/><circle cx="5" cy="6" r="2"/><circle cx="3" cy="22" r="2"/><circle cx="47" cy="22" r="2"/><circle cx="25" cy="41" r="2"/><circle cx="15" cy="41" r="2"/><circle cx="5" cy="38" r="2"/><circle cx="35" cy="3" r="2"/><circle cx="45" cy="6" r="2"/></g><path d="m42 49v-.9a1.962 1.962 0 0 0 -.971-1.707 11.984 11.984 0 0 1 -6.029-10.613 12 12 0 0 1 24 .22 11.981 11.981 0 0 1 -6.019 10.392 1.973 1.973 0 0 0 -.981 1.713v.895a2 2 0 0 1 -2 2h-6a2 2 0 0 1 -2-2z" fill="#fccd3a"/><rect fill="#cfd2da" height="4" rx="2" width="10" x="42" y="51"/><circle cx="25" cy="22" fill="#5a8ca8" r="6"/><path d="m49.7 23.29a2.971 2.971 0 0 0 .3-1.29 2.993 2.993 0 0 0 -5.816-1h-5.184v-5h5a2 2 0 0 0 2-2v-5.184a3 3 0 1 0 -2 0v5.184h-5.142a4 4 0 0 0 -3.858-3h-3v-2h2a2 2 0 0 0 2-2v-1.184a3 3 0 1 0 -2 0v1.184h-2a2 2 0 0 0 -2 2v2h-4v-5.184a3 3 0 1 0 -2 0v5.184h-4v-2a2 2 0 0 0 -2-2h-2v-1.184a3 3 0 1 0 -2 0v1.184a2 2 0 0 0 2 2h2v2h-3a4 4 0 0 0 -3.858 3h-5.142v-5.184a3 3 0 1 0 -2 0v5.184a2 2 0 0 0 2 2h5v5h-5.184a3 3 0 1 0 0 2h5.184v5h-5a2 2 0 0 0 -2 2v5.184a3 3 0 1 0 2 0v-5.184h5.142a4 4 0 0 0 3.858 3h3v2h-2a2 2 0 0 0 -2 2v1.184a3 3 0 1 0 2 0v-1.184h2a2 2 0 0 0 2-2v-2h4v5.184a3 3 0 1 0 2 0v-5.184h4v2a2 2 0 0 0 2 2h2.041a12.891 12.891 0 0 0 .7 3.334 1 1 0 0 0 1.885-.668 10.966 10.966 0 0 1 -.626-3.866 11.137 11.137 0 0 1 10.544-10.791 10.992 10.992 0 0 1 5.936 20.516 2.985 2.985 0 0 0 -1.48 2.58v.895a1 1 0 0 1 -1 1h-6a1 1 0 0 1 -1-1v-.9a2.973 2.973 0 0 0 -1.472-2.575 11.045 11.045 0 0 1 -2.779-2.267 1 1 0 1 0 -1.5 1.324 13.041 13.041 0 0 0 3.279 2.677.965.965 0 0 1 .47.841v.9a2.981 2.981 0 0 0 .78 2 2.972 2.972 0 0 0 1.408 4.874l.463 1.855a3 3 0 0 0 2.913 2.271h.876a3 3 0 0 0 2.911-2.272l.463-1.854a2.972 2.972 0 0 0 1.408-4.874 2.981 2.981 0 0 0 .78-2v-.9a.981.981 0 0 1 .479-.847 13.031 13.031 0 0 0 6.521-11.253 12.981 12.981 0 0 0 -10.3-12.71zm-4.7-18.29a1 1 0 1 1 -1 1 1 1 0 0 1 1-1zm-10-3a1 1 0 1 1 -1 1 1 1 0 0 1 1-1zm-10 0a1 1 0 1 1 -1 1 1 1 0 0 1 1-1zm-10 0a1 1 0 1 1 -1 1 1 1 0 0 1 1-1zm-10 3a1 1 0 1 1 -1 1 1 1 0 0 1 1-1zm-2 18a1 1 0 1 1 1-1 1 1 0 0 1 -1 1zm2 16a1 1 0 1 1 1-1 1 1 0 0 1 -1 1zm10 3a1 1 0 1 1 1-1 1 1 0 0 1 -1 1zm10 0a1 1 0 1 1 1-1 1 1 0 0 1 -1 1zm22-21a1 1 0 1 1 -1 1 1 1 0 0 1 1-1zm-15 12h2.373a12.518 12.518 0 0 0 -.319 2h-2.054zm3.036-2c-.012 0-.023 0-.036 0h-20a2 2 0 0 1 -2-2v-14a2 2 0 0 1 2-2h20a2 2 0 0 1 2 2v12.791a13.273 13.273 0 0 0 -1.964 3.209zm3.964-5.16v-2.84h5.184a3.03 3.03 0 0 0 .124.3 12.986 12.986 0 0 0 -5.308 2.54zm9.409 31.4a1 1 0 0 1 -.971.758h-.876a1 1 0 0 1 -.971-.757l-.311-1.241h3.44zm1.591-3.24h-6a1 1 0 0 1 0-2h6a1 1 0 0 1 0 2z" fill="#373737"/><path d="m25 15a7 7 0 1 0 7 7 7.009 7.009 0 0 0 -7-7zm4.9 6h-1.929a14.153 14.153 0 0 0 -.537-3.341 5 5 0 0 1 2.466 3.341zm-5.87 2h1.942a8.1 8.1 0 0 1 -.972 3.909 8.1 8.1 0 0 1 -.971-3.909zm0-2a8.1 8.1 0 0 1 .97-3.909 8.1 8.1 0 0 1 .971 3.909zm-1.463-3.341a14.153 14.153 0 0 0 -.538 3.341h-1.929a5 5 0 0 1 2.466-3.341zm-2.467 5.341h1.928a14.153 14.153 0 0 0 .537 3.341 5 5 0 0 1 -2.465-3.341zm7.333 3.341a14.153 14.153 0 0 0 .538-3.341h1.929a5 5 0 0 1 -2.466 3.341z" fill="#373737"/><path d="m39 37a1 1 0 0 0 1-1 7.009 7.009 0 0 1 7-7 1 1 0 0 0 0-2 9.01 9.01 0 0 0 -9 9 1 1 0 0 0 1 1z" fill="#373737"/></svg>