<svg id="icons" height="512" viewBox="0 0 60 60" width="512" xmlns="http://www.w3.org/2000/svg"><rect fill="#bfdbf0" height="32" rx="3" width="44" x="8" y="1"/><path d="m43 40v-5a10 10 0 0 0 -10-10h-6a10 10 0 0 0 -10 10v5z" fill="#35718a"/><path d="m37.26 25.96v.01a18.465 18.465 0 0 1 -5.42 13.2 2.5 2.5 0 0 1 -3.68 0 18.457 18.457 0 0 1 -5.42-13.21 9.787 9.787 0 0 1 4.26-.96h6a9.787 9.787 0 0 1 4.26.96z" fill="#fff"/><g fill="#4184a9"><circle cx="6" cy="48" r="4"/><path d="m6 52a5 5 0 0 0 -5 5 2 2 0 0 0 2 2h6a2 2 0 0 0 2-2 5 5 0 0 0 -5-5z"/><circle cx="22" cy="48" r="4"/><path d="m22 52a5 5 0 0 0 -5 5 2 2 0 0 0 2 2h6a2 2 0 0 0 2-2 5 5 0 0 0 -5-5z"/><circle cx="38" cy="48" r="4"/><path d="m38 52a5 5 0 0 0 -5 5 2 2 0 0 0 2 2h6a2 2 0 0 0 2-2 5 5 0 0 0 -5-5z"/><circle cx="54" cy="48" r="4"/><path d="m54 52a5 5 0 0 0 -5 5 2 2 0 0 0 2 2h6a2 2 0 0 0 2-2 5 5 0 0 0 -5-5z"/><circle cx="30" cy="16" r="9"/></g><path d="m33 25-1 4h-4l-1-4z" fill="#a53c50"/><path d="m32.82 38.12c-.31.35-.63.7-.98 1.05a2.5 2.5 0 0 1 -3.68 0c-.34-.35-.67-.7-.98-1.05l.82-9.12h4z" fill="#cd4c60"/><path d="m0 57a3 3 0 0 0 3 3h6a3 3 0 0 0 3-3 5.993 5.993 0 0 0 -2.887-5.119 5 5 0 1 0 -6.226 0 5.993 5.993 0 0 0 -2.887 5.119zm3-9a3 3 0 1 1 3 3 3 3 0 0 1 -3-3zm3 5a4 4 0 0 1 4 4 1 1 0 0 1 -1 1h-6a1 1 0 0 1 -1-1 4 4 0 0 1 4-4z" fill="#373737"/><path d="m16 57a3 3 0 0 0 3 3h6a3 3 0 0 0 3-3 5.993 5.993 0 0 0 -2.887-5.119 5 5 0 1 0 -6.226 0 5.993 5.993 0 0 0 -2.887 5.119zm3-9a3 3 0 1 1 3 3 3 3 0 0 1 -3-3zm3 5a4 4 0 0 1 4 4 1 1 0 0 1 -1 1h-6a1 1 0 0 1 -1-1 4 4 0 0 1 4-4z" fill="#373737"/><path d="m32 57a3 3 0 0 0 3 3h6a3 3 0 0 0 3-3 5.993 5.993 0 0 0 -2.887-5.119 5 5 0 1 0 -6.226 0 5.993 5.993 0 0 0 -2.887 5.119zm3-9a3 3 0 1 1 3 3 3 3 0 0 1 -3-3zm3 5a4 4 0 0 1 4 4 1 1 0 0 1 -1 1h-6a1 1 0 0 1 -1-1 4 4 0 0 1 4-4z" fill="#373737"/><path d="m57.113 51.881a5 5 0 1 0 -6.226 0 5.993 5.993 0 0 0 -2.887 5.119 3 3 0 0 0 3 3h6a3 3 0 0 0 3-3 5.993 5.993 0 0 0 -2.887-5.119zm-6.113-3.881a3 3 0 1 1 3 3 3 3 0 0 1 -3-3zm6 10h-6a1 1 0 0 1 -1-1 4 4 0 0 1 8 0 1 1 0 0 1 -1 1z" fill="#373737"/><path d="m59 39h-15v-4a11 11 0 0 0 -6.337-9.948l-.023-.011a10.868 10.868 0 0 0 -2.088-.73 10 10 0 1 0 -11.1 0 10.877 10.877 0 0 0 -2.074.723c-.02.008-.038.018-.058.028a11.037 11.037 0 0 0 -5.894 6.938h-5.426a2 2 0 0 1 -2-2v-26a2 2 0 0 1 2-2h38a2 2 0 0 1 2 2v26a2 2 0 0 1 -2 2h-3a1 1 0 0 0 0 2h3a4 4 0 0 0 4-4v-26a4 4 0 0 0 -4-4h-38a4 4 0 0 0 -4 4v26a4 4 0 0 0 4 4h5.051c-.03.33-.051.662-.051 1v4h-15a1 1 0 0 0 0 2h58a1 1 0 0 0 0-2zm-17-4v4h-8.632a19.482 19.482 0 0 0 4.816-11.345 8.992 8.992 0 0 1 3.816 7.345zm-13.087-5h2.174l.71 7.758c-.214.237-.434.474-.667.708a1.839 1.839 0 0 1 -1.223.513 1.4 1.4 0 0 1 -1.039-.515c-.233-.233-.451-.469-.665-.706zm4.676 5.393-.578-6.317.76-3.037a8.942 8.942 0 0 1 2.478.577 17.449 17.449 0 0 1 -2.66 8.777zm-1.87-9.393-.5 2h-2.438l-.5-2zm-5.49.039.76 3.037-.578 6.317a17.478 17.478 0 0 1 -2.659-8.777 8.926 8.926 0 0 1 2.477-.577zm-4.229-10.039a8 8 0 1 1 8 8 8.009 8.009 0 0 1 -8-8zm-4 19a8.991 8.991 0 0 1 3.812-7.342 19.087 19.087 0 0 0 4.816 11.342h-8.628z" fill="#373737"/></svg>